<?xml version="1.0" encoding="utf-8"?>
<!-- Generator: Adobe Illustrator 25.4.1, SVG Export Plug-In . SVG Version: 6.00 Build 0)  -->
<svg version="1.1" id="Layer_1" xmlns="http://www.w3.org/2000/svg" xmlns:xlink="http://www.w3.org/1999/xlink" x="0px" y="0px"
	 viewBox="0 0 830.7 635.1" style="enable-background:new 0 0 830.7 635.1;" xml:space="preserve">
<style type="text/css">
	.st0{fill:#FFFFFF;}
</style>
<path class="st0" d="M118.6,172.9c46.9,0,57.4-22.6,66.8-48.6h40.9v386.5h-60.7V215.9h-46.9L118.6,172.9z"/>
<path class="st0" d="M392.5,515.3c-61.3,0-95-35.3-95-97.2v-30.4c0-37,11-65.7,37.5-80.6c-25.4-13.8-37.5-39.8-37.5-77.9v-12.1
	c0-61.8,33.7-97.2,95-97.2s95,35.3,95,97.2v12.1c0,38.1-12.7,64.1-37.5,77.9c26.5,14.9,37.5,43.6,37.5,80.6v30.4
	C487.5,479.9,453.8,515.3,392.5,515.3z M358.3,240.9c0,30.9,14.4,40.9,34.2,40.9c19.3,0,34.2-9.9,34.2-40.9v-21.5
	c0-34.8-14.9-44.2-34.2-44.2s-34.2,9.4-34.2,44.2V240.9z M392.5,460.1c19.3,0,33.7-9.4,34.2-43.6v-35.9c0-30.4-12.7-43.6-34.2-43.6
	s-34.2,13.3-34.2,43.6v35.9C358.3,450.6,373.2,460,392.5,460.1L392.5,460.1z"/>
<path class="st0" d="M638.2,296h74v43.1h-74v75.7h-43v-75.7h-74V296h74v-74.5h43V296z"/>
<path class="st0" d="M830.2,634.6H0.5V0.5h829.7V634.6z M31.7,603.4H799V31.7H31.7L31.7,603.4z"/>
</svg>
